<svg width="144" height="144" viewBox="0 0 144 144" fill="none" xmlns="http://www.w3.org/2000/svg">
<g clip-path="url(#clip0_1_2417)">
<path d="M118.13 0.916992H25.1301C11.323 0.916992 0.130127 12.1099 0.130127 25.917V118.917C0.130127 132.724 11.323 143.917 25.1301 143.917H118.13C131.937 143.917 143.13 132.724 143.13 118.917V25.917C143.13 12.1099 131.937 0.916992 118.13 0.916992Z" fill="black"/>
<path d="M132.133 50.5488V94.8598H121.339V68.2858L111.429 94.8598H102.718L92.7452 68.2228V94.8598L81.9512 90.3598V50.5488H94.7022L107.137 81.2288L119.445 50.5488H132.133Z" fill="white"/>
<path d="M32.92 95.2978C28.9143 95.3397 24.9664 94.3404 21.463 92.3978C18.0229 90.493 15.1648 87.6895 13.194 84.2868C11.1316 80.7336 10.0736 76.6867 10.133 72.5788C10.07 68.4789 11.1284 64.4398 13.194 60.8978C15.1719 57.5085 18.029 54.7168 21.463 52.8178C24.9664 50.8752 28.9143 49.8759 32.92 49.9178C36.9257 49.8759 40.8736 50.8752 44.377 52.8178C47.8018 54.7073 50.6408 57.5026 52.583 60.8978C54.6097 64.452 55.6457 68.4848 55.583 72.5758C55.643 76.6801 54.5963 80.7247 52.553 84.2848C50.6059 87.6853 47.768 90.4903 44.345 92.3978C40.8541 94.3426 36.9159 95.3422 32.92 95.2978ZM32.92 85.4508C34.5075 85.5176 36.0903 85.2357 37.5571 84.625C39.0239 84.0142 40.3391 83.0895 41.41 81.9158C43.621 79.3199 44.7609 75.9797 44.598 72.5738C44.598 68.6604 43.5354 65.5358 41.41 63.1998C40.3338 62.035 39.0169 61.1186 37.5508 60.5141C36.0846 59.9097 34.5044 59.6318 32.92 59.6998C31.3283 59.6274 29.7398 59.9002 28.2635 60.4995C26.7871 61.0988 25.4579 62.0104 24.367 63.1718C22.2417 65.4864 21.179 68.6214 21.179 72.5768C21.179 76.4901 22.2417 79.6148 24.367 81.9508C25.4535 83.1197 26.7812 84.0382 28.2582 84.6425C29.7351 85.2469 31.3258 85.5227 32.92 85.4508Z" fill="white"/>
<path d="M68.6891 95.2978C64.6834 95.3397 60.7355 94.3404 57.2321 92.3978C53.7919 90.493 50.9338 87.6895 48.9631 84.2868C46.9007 80.7336 45.8426 76.6867 45.9021 72.5788C45.839 68.4789 46.8975 64.4398 48.9631 60.8978C50.941 57.5085 53.798 54.7168 57.2321 52.8178C60.7355 50.8752 64.6834 49.8759 68.6891 49.9178C72.6948 49.8759 76.6427 50.8752 80.1461 52.8178C83.5709 54.7073 86.4098 57.5026 88.3521 60.8978C90.3788 64.452 91.4148 68.4848 91.3521 72.5758C91.412 76.6801 90.3653 80.7247 88.3221 84.2848C86.3749 87.6853 83.537 90.4903 80.1141 92.3978C76.6232 94.3426 72.6849 95.3422 68.6891 95.2978ZM68.6891 85.4508C70.2765 85.5176 71.8594 85.2357 73.3262 84.625C74.793 84.0142 76.1081 83.0895 77.1791 81.9158C79.3901 79.3199 80.5299 75.9797 80.3671 72.5738C80.3671 68.6604 79.3044 65.5358 77.1791 63.1998C76.1029 62.035 74.7859 61.1186 73.3198 60.5141C71.8536 59.9097 70.2735 59.6318 68.6891 59.6998C67.0974 59.6274 65.5089 59.9002 64.0325 60.4995C62.5562 61.0988 61.227 62.0104 60.1361 63.1718C58.0107 65.4864 56.9481 68.6214 56.9481 72.5768C56.9481 76.4901 58.0107 79.6148 60.1361 81.9508C61.2225 83.1197 62.5503 84.0382 64.0272 84.6425C65.5041 85.2469 67.0949 85.5227 68.6891 85.4508Z" fill="white"/>
</g>
<defs>
<clipPath id="clip0_1_2417">
<rect width="143" height="143" fill="white" transform="translate(0.130127 0.916992)"/>
</clipPath>
</defs>
</svg>
